<?xml version="1.0" encoding="UTF-8" standalone="no"?>
<!DOCTYPE svg PUBLIC "-//W3C//DTD SVG 1.1//EN"
 "http://www.w3.org/Graphics/SVG/1.1/DTD/svg11.dtd">
<!-- Generated by graphviz version 3.0.0 (0)
 -->
<!-- Title: Tree Pages: 1 -->
<svg width="259pt" height="218pt"
 viewBox="0.00 0.00 258.60 218.00" xmlns="http://www.w3.org/2000/svg" xmlns:xlink="http://www.w3.org/1999/xlink">
<g id="graph0" class="graph" transform="scale(1 1) rotate(0) translate(4 214)">
<title>Tree</title>
<polygon fill="white" stroke="transparent" points="-4,4 -4,-214 254.6,-214 254.6,4 -4,4"/>
<!-- Node_0 -->
<g id="node1" class="node">
<title>Node_0</title>
<ellipse fill="none" stroke="black" cx="176" cy="-192" rx="27.9" ry="18"/>
<text text-anchor="middle" x="176" y="-188.3" font-family="Times,serif" font-size="14.00">and</text>
</g>
<!-- Node_2 -->
<g id="node3" class="node">
<title>Node_2</title>
<ellipse fill="none" stroke="black" cx="110" cy="-105" rx="29.8" ry="18"/>
<text text-anchor="middle" x="110" y="-101.3" font-family="Times,serif" font-size="14.00">love</text>
</g>
<!-- Node_0&#45;&gt;Node_2 -->
<g id="edge1" class="edge">
<title>Node_0&#45;&gt;Node_2</title>
<path fill="none" stroke="black" d="M163.89,-175.41C153.94,-162.59 139.68,-144.22 128.32,-129.6"/>
<polygon fill="black" stroke="black" points="130.93,-127.24 122.03,-121.49 125.4,-131.54 130.93,-127.24"/>
<text text-anchor="middle" x="152" y="-144.8" font-family="Times,serif" font-size="14.00">1</text>
</g>
<!-- Node_3 -->
<g id="node4" class="node">
<title>Node_3</title>
<ellipse fill="none" stroke="black" cx="110" cy="-18" rx="29.8" ry="18"/>
<text text-anchor="middle" x="110" y="-14.3" font-family="Times,serif" font-size="14.00">that</text>
</g>
<!-- Node_0&#45;&gt;Node_3 -->
<g id="edge2" class="edge">
<title>Node_0&#45;&gt;Node_3</title>
<path fill="none" stroke="black" d="M178.62,-173.99C181.93,-146.59 184.74,-91.93 162,-54 157.29,-46.15 150.07,-39.68 142.49,-34.53"/>
<polygon fill="black" stroke="black" points="143.91,-31.3 133.55,-29.09 140.27,-37.28 143.91,-31.3"/>
<text text-anchor="middle" x="185" y="-101.3" font-family="Times,serif" font-size="14.00">1</text>
</g>
<!-- Node_4 -->
<g id="node5" class="node">
<title>Node_4</title>
<ellipse fill="none" stroke="black" cx="222" cy="-18" rx="28.7" ry="18"/>
<text text-anchor="middle" x="222" y="-14.3" font-family="Times,serif" font-size="14.00">this</text>
</g>
<!-- Node_0&#45;&gt;Node_4 -->
<g id="edge3" class="edge">
<title>Node_0&#45;&gt;Node_4</title>
<path fill="none" stroke="black" d="M183.22,-174.45C185.57,-168.68 188.07,-162.12 190,-156 201.78,-118.57 211.38,-74.16 216.9,-46.27"/>
<polygon fill="black" stroke="black" points="220.4,-46.58 218.87,-36.1 213.53,-45.24 220.4,-46.58"/>
<text text-anchor="middle" x="213" y="-101.3" font-family="Times,serif" font-size="14.00">1</text>
</g>
<!-- Node_1 -->
<g id="node2" class="node">
<title>Node_1</title>
<ellipse fill="none" stroke="black" cx="27" cy="-192" rx="27" ry="18"/>
<text text-anchor="middle" x="27" y="-188.3" font-family="Times,serif" font-size="14.00">i</text>
</g>
<!-- Node_1&#45;&gt;Node_2 -->
<g id="edge4" class="edge">
<title>Node_1&#45;&gt;Node_2</title>
<path fill="none" stroke="black" d="M41.08,-176.58C54,-163.35 73.33,-143.55 88.24,-128.29"/>
<polygon fill="black" stroke="black" points="91.09,-130.38 95.57,-120.78 86.08,-125.49 91.09,-130.38"/>
<text text-anchor="middle" x="79" y="-144.8" font-family="Times,serif" font-size="14.00">1</text>
</g>
<!-- Node_2&#45;&gt;Node_3 -->
<g id="edge5" class="edge">
<title>Node_2&#45;&gt;Node_3</title>
<path fill="none" stroke="black" d="M110,-86.8C110,-75.16 110,-59.55 110,-46.24"/>
<polygon fill="black" stroke="black" points="113.5,-46.18 110,-36.18 106.5,-46.18 113.5,-46.18"/>
<text text-anchor="middle" x="115" y="-57.8" font-family="Times,serif" font-size="14.00">1</text>
</g>
<!-- Node_2&#45;&gt;Node_4 -->
<g id="edge6" class="edge">
<title>Node_2&#45;&gt;Node_4</title>
<path fill="none" stroke="black" d="M127.99,-90.34C146.47,-76.32 175.4,-54.36 196.29,-38.51"/>
<polygon fill="black" stroke="black" points="198.57,-41.18 204.42,-32.34 194.34,-35.6 198.57,-41.18"/>
<text text-anchor="middle" x="177" y="-57.8" font-family="Times,serif" font-size="14.00">1</text>
</g>
<!-- Node_3&#45;&gt;Node_0 -->
<g id="edge7" class="edge">
<title>Node_3&#45;&gt;Node_0</title>
<path fill="none" stroke="black" d="M94.22,-33.49C73.96,-53.92 43.4,-92.14 61,-123 77.99,-152.79 113.71,-170.85 140.86,-180.79"/>
<polygon fill="black" stroke="black" points="139.83,-184.14 150.43,-184.1 142.12,-177.52 139.83,-184.14"/>
<text text-anchor="middle" x="66" y="-101.3" font-family="Times,serif" font-size="14.00">1</text>
</g>
<!-- Node_4&#45;&gt;Node_0 -->
<g id="edge8" class="edge">
<title>Node_4&#45;&gt;Node_0</title>
<path fill="none" stroke="black" d="M224.93,-36.04C225.77,-41.73 226.58,-48.12 227,-54 229.18,-84.67 230.26,-93.38 222,-123 217.62,-138.7 214.93,-142.37 206,-156 203.24,-160.21 200.02,-164.47 196.74,-168.49"/>
<polygon fill="black" stroke="black" points="193.87,-166.46 190.04,-176.34 199.2,-171.01 193.87,-166.46"/>
<text text-anchor="middle" x="233" y="-101.3" font-family="Times,serif" font-size="14.00">2</text>
</g>
</g>
</svg>
